<?xml version="1.0" standalone="no"?>
<!DOCTYPE svg PUBLIC "-//W3C//DTD SVG 20010904//EN"
 "http://www.w3.org/TR/2001/REC-SVG-20010904/DTD/svg10.dtd">
<svg version="1.0" xmlns="http://www.w3.org/2000/svg"
 width="499.000000pt" height="499.000000pt" viewBox="0 0 499.000000 499.000000"
 preserveAspectRatio="xMidYMid meet">
<metadata>
Created by potrace 1.11, written by Peter Selinger 2001-2013
</metadata>
<g transform="translate(0.000000,499.000000) scale(0.100000,-0.100000)"
fill="#000000" stroke="none">
<path d="M2309 3691 c-73 -20 -166 -83 -280 -193 -37 -35 -93 -85 -125 -113
-74 -63 -382 -370 -451 -450 -29 -33 -67 -80 -85 -105 -18 -25 -35 -47 -38
-50 -8 -7 -36 -52 -65 -104 -46 -82 -58 -134 -52 -221 4 -59 2 -85 -8 -98 -18
-25 -28 -89 -20 -126 8 -35 41 -73 81 -92 25 -12 29 -20 32 -62 2 -33 -2 -57
-13 -74 -13 -19 -16 -41 -13 -90 7 -115 44 -132 293 -133 132 0 154 -2 180
-20 43 -29 132 -28 171 2 16 12 32 26 35 31 4 5 49 14 100 19 225 21 529 63
799 108 63 11 174 22 245 24 72 2 168 12 215 21 118 23 296 63 350 80 25 7 56
16 70 19 14 3 36 21 49 41 20 29 22 42 16 82 -4 27 -11 56 -16 65 -5 10 -14
50 -19 90 -9 72 -8 73 18 95 23 18 27 28 27 75 -1 39 -7 63 -23 85 -17 25 -22
45 -22 98 0 98 -26 150 -108 216 -62 50 -95 79 -132 112 -8 7 -51 41 -95 75
-44 34 -106 82 -138 107 -31 25 -62 45 -67 45 -6 0 -10 4 -10 9 0 5 -13 17
-29 28 -16 10 -101 66 -188 124 -87 58 -165 109 -173 113 -8 4 -33 18 -55 31
-100 60 -237 124 -296 139 -78 19 -77 19 -160 -3z m168 -60 c41 -12 131 -72
174 -116 24 -24 40 -33 54 -29 13 4 16 2 7 -4 -9 -6 -4 -16 20 -39 47 -42 160
-165 178 -192 8 -13 25 -37 38 -54 12 -17 22 -35 22 -39 0 -5 11 -26 24 -47
14 -21 23 -41 20 -44 -3 -3 0 -23 7 -46 25 -84 -19 -187 -106 -248 -79 -56
-152 -80 -295 -97 -509 -61 -734 -86 -1055 -116 -115 -11 -229 -20 -252 -20
-41 0 -41 1 -33 28 15 51 98 187 144 239 6 6 27 31 46 54 65 79 248 273 327
345 110 102 124 114 174 158 24 21 78 71 119 110 79 76 149 128 203 151 37 16
137 19 184 6z m264 -138 c13 -16 12 -17 -3 -4 -17 13 -22 21 -14 21 2 0 10 -8
17 -17z m604 -433 c3 -5 1 -10 -4 -10 -6 0 -11 5 -11 10 0 6 2 10 4 10 3 0 8
-4 11 -10z m249 -228 c3 -5 -1 -9 -9 -9 -8 0 -12 4 -9 9 3 4 7 8 9 8 2 0 6 -4
9 -8z m-340 -111 c4 -5 -3 -7 -14 -4 -23 6 -26 13 -6 13 8 0 17 -4 20 -9z m24
-56 c-9 -10 -252 -35 -398 -41 l-145 -7 -1 -33 c-1 -39 -26 -64 -101 -98 -56
-26 -298 -60 -508 -70 -60 -4 -204 -13 -320 -21 -216 -15 -511 -22 -521 -12
-3 2 -8 30 -11 61 l-6 56 54 0 c30 0 92 4 139 10 47 5 146 14 220 20 74 5 189
17 255 25 236 29 562 66 750 85 50 5 155 10 235 11 80 1 179 5 220 9 103 9
144 11 138 5z m462 -125 c27 -66 -16 -88 -139 -71 l-84 12 -37 -30 c-50 -40
-114 -48 -204 -26 l-68 17 -49 -31 c-54 -33 -112 -40 -178 -21 -27 7 -41 5
-74 -11 -34 -18 -51 -20 -107 -15 -53 6 -69 4 -79 -8 -7 -8 -35 -22 -62 -31
-42 -14 -59 -15 -117 -5 l-67 12 -61 -35 c-124 -70 -214 -72 -306 -7 -63 44
-107 48 -198 15 -131 -46 -149 -49 -187 -36 -21 8 -38 9 -46 3 -28 -22 -81
-32 -112 -22 -29 10 -38 7 -99 -35 -87 -58 -139 -58 -203 -1 -23 20 -31 77
-15 103 5 8 79 13 252 16 366 7 1021 59 1227 98 56 10 117 19 135 19 75 0 631
74 743 100 114 25 121 25 135 -10z m-577 -237 c-7 -2 -21 -2 -30 0 -10 3 -4 5
12 5 17 0 24 -2 18 -5z m-19 -48 c39 0 131 9 203 20 73 10 135 16 138 13 7 -7
-22 -97 -38 -119 -16 -21 -51 -39 -76 -39 -11 0 -46 11 -78 24 -65 28 -178 61
-238 71 -54 9 -58 13 -38 40 17 22 19 22 37 7 13 -13 37 -17 90 -17z m574 -23
c2 -7 0 -12 -5 -11 -4 1 -17 1 -28 0 -15 -1 -17 -3 -7 -10 8 -5 -8 -6 -39 -3
-31 3 -50 1 -46 -4 3 -6 -3 -10 -14 -10 -39 0 -11 21 52 37 70 19 81 19 87 1z
m-1245 -29 c-13 -2 -33 -2 -45 0 -13 2 -3 4 22 4 25 0 35 -2 23 -4z m-604 -29
c10 -9 -55 -3 -69 6 -10 6 -2 7 25 3 22 -3 42 -7 44 -9z m492 -9 c-1 -6 -13
-14 -28 -19 -15 -5 -34 -15 -41 -23 -7 -7 -18 -13 -23 -13 -33 0 -355 -246
-367 -281 -2 -5 -10 -9 -17 -9 -7 0 -15 -7 -19 -15 -7 -20 -51 -19 -87 2 -15
9 -43 36 -60 60 -18 24 -36 43 -41 43 -4 0 -8 5 -8 10 0 6 -16 33 -35 60 -19
27 -35 53 -35 56 0 3 -9 18 -20 34 l-19 27 67 6 c66 5 122 23 122 38 0 4 14 0
31 -8 55 -28 493 -3 541 30 25 17 40 18 39 2z m824 -34 c-18 -7 -96 -20 -218
-36 -26 -3 -45 -9 -43 -13 2 -4 -15 -7 -37 -8 -23 0 -78 -5 -122 -11 -75 -10
-83 -13 -127 -56 -59 -57 -128 -83 -260 -97 -57 -6 -145 -17 -195 -24 -51 -7
-93 -12 -93 -11 0 3 125 100 145 112 18 11 17 12 -15 13 -63 1 -10 17 80 24
47 4 112 11 145 16 33 5 105 14 160 20 126 13 282 36 405 60 98 18 213 26 175
11z m-1805 -56 c0 -25 -4 -45 -10 -45 -5 0 -10 20 -10 45 0 25 5 45 10 45 6 0
10 -20 10 -45z m2150 21 c0 -2 -8 -10 -17 -17 -16 -13 -17 -12 -4 4 13 16 21
21 21 13z m-1940 -126 c0 -6 18 -35 40 -65 22 -30 40 -57 40 -60 0 -15 -309 1
-326 17 -13 14 -22 82 -13 100 9 16 24 18 134 18 80 0 125 -4 125 -10z m500
-76 c0 -8 -19 -13 -24 -6 -3 5 1 9 9 9 8 0 15 -2 15 -3z"/>
<path d="M2386 3461 c-3 -5 2 -19 12 -31 16 -20 19 -20 31 -6 7 9 11 23 7 31
-6 16 -41 21 -50 6z"/>
<path d="M2182 3149 c2 -6 8 -10 13 -10 5 0 11 4 13 10 2 6 -4 11 -13 11 -9 0
-15 -5 -13 -11z"/>
<path d="M2700 3099 c0 -5 5 -7 10 -4 6 3 10 8 10 11 0 2 -4 4 -10 4 -5 0 -10
-5 -10 -11z"/>
<path d="M2762 2933 c2 -10 10 -18 18 -18 8 0 16 8 18 18 2 12 -3 17 -18 17
-15 0 -20 -5 -18 -17z"/>
<path d="M1915 2930 c-3 -5 1 -10 9 -10 9 0 16 5 16 10 0 6 -4 10 -9 10 -6 0
-13 -4 -16 -10z"/>
<path d="M2262 2914 c4 -21 22 -23 26 -1 2 10 -3 17 -13 17 -10 0 -15 -6 -13
-16z"/>
<path d="M1745 2780 c3 -5 8 -10 11 -10 2 0 4 5 4 10 0 6 -5 10 -11 10 -5 0
-7 -4 -4 -10z"/>
<path d="M2080 2760 c0 -5 5 -10 10 -10 6 0 10 5 10 10 0 6 -4 10 -10 10 -5 0
-10 -4 -10 -10z"/>
<path d="M2440 2500 c0 -5 5 -10 10 -10 6 0 10 5 10 10 0 6 -4 10 -10 10 -5 0
-10 -4 -10 -10z"/>
</g>
</svg>
